<svg width="172" height="152" viewBox="0 0 172 152" fill="none" xmlns="http://www.w3.org/2000/svg">
<rect width="172" height="152" fill="#117445"/>
<path d="M49.832 66H27.144V28.496H49.352L48.712 36.048L37.736 35.728V42.96H46.376V50.448L37.736 49.808V58.32L49.832 58V66ZM88.5255 64.848C86.6908 66.3413 83.0535 67.088 77.6135 67.088C73.3468 67.088 69.9868 65.9253 67.5335 63.6C65.0802 61.2533 63.8535 58.3307 63.8535 54.832C63.8535 52.6773 64.6108 50.8 66.1255 49.2C67.6402 47.6 69.3895 46.3947 71.3735 45.584C71.2455 45.3067 70.9788 44.848 70.5735 44.208C70.1895 43.568 69.8268 42.9707 69.4855 42.416C69.1442 41.8613 68.8348 41.1467 68.5575 40.272C68.2802 39.3973 68.1415 38.5227 68.1415 37.648C68.1415 34.384 69.1442 31.92 71.1495 30.256C73.1762 28.592 76.5575 27.76 81.2935 27.76C83.3842 27.76 85.2188 28.0373 86.7975 28.592C88.3762 29.1467 89.5922 29.8933 90.4455 30.832C91.2988 31.7493 91.9282 32.7307 92.3335 33.776C92.7388 34.8 92.9415 35.888 92.9415 37.04C92.9415 39.4293 92.2908 41.5627 90.9895 43.44C89.7095 45.296 87.7148 47.0667 85.0055 48.752C85.3255 49.328 85.9015 50.1387 86.7335 51.184C87.5868 52.208 88.3655 53.008 89.0695 53.584C89.2615 53.0933 89.4108 52.6027 89.5175 52.112C89.6455 51.6 89.7415 51.024 89.8055 50.384C89.8908 49.744 89.8588 49.2 89.7095 48.752L98.2535 49.008C98.2535 50.672 98.0722 52.1653 97.7095 53.488C97.3468 54.7893 96.9842 55.7387 96.6215 56.336C96.2588 56.912 95.7468 57.6373 95.0855 58.512C96.6002 59.7707 98.1042 60.56 99.5975 60.88L97.1335 66.48C96.5575 66.544 96.0988 66.576 95.7575 66.576C92.6215 66.576 90.2108 66 88.5255 64.848ZM73.3575 55.024C73.3575 56.9653 73.9655 58.5547 75.1815 59.792C76.3975 61.0293 77.8162 61.648 79.4375 61.648C79.6935 61.648 79.9282 61.6373 80.1415 61.616C80.3548 61.5733 80.5788 61.5093 80.8135 61.424C81.0482 61.3173 81.2508 61.232 81.4215 61.168C81.5922 61.0827 81.8482 60.9547 82.1895 60.784C82.5308 60.6133 82.8082 60.4747 83.0215 60.368C79.5655 57.9573 76.7922 54.96 74.7015 51.376C74.1895 51.6747 73.8375 52.08 73.6455 52.592C73.4535 53.104 73.3575 53.9147 73.3575 55.024ZM81.1335 32.24C79.5762 32.24 78.7975 33.9893 78.7975 37.488C78.7975 39.664 79.5868 41.6587 81.1655 43.472C81.9975 42.7893 82.6162 42.064 83.0215 41.296C83.4268 40.528 83.6615 39.8667 83.7255 39.312C83.8108 38.736 83.8535 37.936 83.8535 36.912C83.8535 33.7973 82.9468 32.24 81.1335 32.24ZM127.346 60.752C128.968 60.752 130.205 59.7493 131.058 57.744C131.933 55.7387 132.37 52.432 132.37 47.824V44.592C132.37 41.2213 131.965 38.6187 131.155 36.784C130.344 34.9493 129.192 34.032 127.699 34.032H125.298V60.752H127.346ZM128.338 66.224C127.57 66.224 126.376 66.1813 124.755 66.096C123.155 66.032 121.501 66 119.795 66H114.706V28.496H119.795C121.224 28.4747 122.781 28.4213 124.466 28.336C126.152 28.2507 127.474 28.208 128.434 28.208C133.875 28.208 137.768 29.7333 140.115 32.784C142.483 35.8347 143.667 40.2827 143.667 46.128C143.667 48.112 143.528 50 143.25 51.792C142.995 53.584 142.504 55.3867 141.778 57.2C141.053 58.992 140.136 60.5387 139.026 61.84C137.917 63.1413 136.445 64.1973 134.61 65.008C132.776 65.8187 130.685 66.224 128.338 66.224Z" fill="#FFD600"/>
<path d="M34.312 116.672C32.6693 116.672 31.1333 116.523 29.704 116.224C28.296 115.947 27.112 115.573 26.152 115.104C25.192 114.635 24.4027 114.187 23.784 113.76C23.1867 113.333 22.6853 112.907 22.28 112.48L23.08 104.704C23.9547 105.877 25.128 106.901 26.6 107.776C28.072 108.629 29.6613 109.056 31.368 109.056C33.0747 109.056 34.3013 108.875 35.048 108.512C35.816 108.149 36.2 107.488 36.2 106.528C36.2 105.504 35.7627 104.629 34.888 103.904C34.0347 103.179 32.552 102.304 30.44 101.28C29.672 100.896 29.0213 100.555 28.488 100.256C27.9547 99.936 27.24 99.424 26.344 98.72C25.4693 97.9947 24.7547 97.248 24.2 96.48C23.6453 95.6907 23.1547 94.688 22.728 93.472C22.3013 92.2347 22.088 90.912 22.088 89.504C22.088 81.888 26.3867 78.08 34.984 78.08C36.3493 78.08 37.6293 78.2293 38.824 78.528C40.04 78.8053 40.9893 79.1147 41.672 79.456C42.3547 79.7973 42.9733 80.2027 43.528 80.672C44.104 81.12 44.4667 81.44 44.616 81.632C44.7653 81.8027 44.872 81.9413 44.936 82.048L43.336 88.224C42.504 87.2427 41.4587 86.5173 40.2 86.048C38.9627 85.5573 37.7787 85.312 36.648 85.312C33.9173 85.312 32.552 86.1653 32.552 87.872C32.552 88.32 32.6373 88.7253 32.808 89.088C32.9787 89.4507 33.256 89.7813 33.64 90.08C34.024 90.3787 34.376 90.6347 34.696 90.848C35.0373 91.0613 35.496 91.328 36.072 91.648C36.6693 91.9467 37.1173 92.192 37.416 92.384C40.5307 93.7067 42.8133 95.2747 44.264 97.088C45.736 98.9013 46.472 101.109 46.472 103.712C46.472 107.936 45.4267 111.157 43.336 113.376C41.2667 115.573 38.2587 116.672 34.312 116.672ZM55.8147 116V86.976H48.3268V78.496H74.1188V86.976H66.6307V116H55.8147ZM99.6445 116H76.9565V78.496H99.1645L98.5245 86.048L87.5485 85.728V92.96H96.1885V100.448L87.5485 99.808V108.32L99.6445 108V116ZM125.238 116H102.55V78.496H124.758L124.118 86.048L113.142 85.728V92.96H121.782V100.448L113.142 99.808V108.32L125.238 108V116ZM128.144 116V78.496H138.736V107.424H148.272V116H128.144Z" fill="#FFD600"/>
</svg>
