<svg width="180" height="171" viewBox="0 0 180 171" fill="none" xmlns="http://www.w3.org/2000/svg">
<ellipse cx="84.5" cy="85.5" rx="84.5" ry="85.5" fill="#117445"/>
<path d="M63.5547 67H48.4293V41.9973H63.2347L62.808 47.032L55.4907 46.8187V51.64H61.2507V56.632L55.4907 56.2053V61.88L63.5547 61.6667V67ZM89.3503 66.232C88.1272 67.2276 85.7023 67.7253 82.0757 67.7253C79.2312 67.7253 76.9912 66.9502 75.3557 65.4C73.7201 63.8356 72.9023 61.8871 72.9023 59.5547C72.9023 58.1182 73.4072 56.8667 74.417 55.8C75.4268 54.7333 76.593 53.9298 77.9157 53.3893C77.8303 53.2044 77.6526 52.8987 77.3823 52.472C77.1263 52.0453 76.8846 51.6471 76.657 51.2773C76.4294 50.9076 76.2232 50.4311 76.0383 49.848C75.8534 49.2649 75.761 48.6818 75.761 48.0987C75.761 45.9227 76.4294 44.28 77.7663 43.1707C79.1174 42.0613 81.3717 41.5067 84.529 41.5067C85.9228 41.5067 87.1459 41.6916 88.1983 42.0613C89.2508 42.4311 90.0614 42.9289 90.6303 43.5547C91.1992 44.1662 91.6188 44.8204 91.889 45.5173C92.1592 46.2 92.2943 46.9253 92.2943 47.6933C92.2943 49.2862 91.8606 50.7084 90.993 51.96C90.1397 53.1973 88.8099 54.3778 87.0037 55.5013C87.217 55.8853 87.601 56.4258 88.1557 57.1227C88.7246 57.8053 89.2437 58.3387 89.713 58.7227C89.841 58.3956 89.9406 58.0684 90.0117 57.7413C90.097 57.4 90.161 57.016 90.2037 56.5893C90.2606 56.1627 90.2392 55.8 90.1397 55.5013L95.8357 55.672C95.8357 56.7813 95.7148 57.7769 95.473 58.6587C95.2312 59.5262 94.9894 60.1591 94.7477 60.5573C94.5059 60.9413 94.1646 61.4249 93.7237 62.008C94.7334 62.8471 95.7361 63.3733 96.7317 63.5867L95.089 67.32C94.705 67.3627 94.3992 67.384 94.1717 67.384C92.081 67.384 90.4739 67 89.3503 66.232ZM79.2383 59.6827C79.2383 60.9769 79.6437 62.0364 80.4543 62.8613C81.265 63.6862 82.2108 64.0987 83.2917 64.0987C83.4623 64.0987 83.6188 64.0916 83.761 64.0773C83.9032 64.0489 84.0526 64.0062 84.209 63.9493C84.3654 63.8782 84.5006 63.8213 84.6143 63.7787C84.7281 63.7218 84.8988 63.6364 85.1263 63.5227C85.3539 63.4089 85.5388 63.3164 85.681 63.2453C83.377 61.6382 81.5281 59.64 80.1343 57.2507C79.793 57.4498 79.5583 57.72 79.4303 58.0613C79.3023 58.4027 79.2383 58.9431 79.2383 59.6827ZM84.4223 44.4933C83.3841 44.4933 82.865 45.6596 82.865 47.992C82.865 49.4427 83.3912 50.7724 84.4437 51.9813C84.9983 51.5262 85.4108 51.0427 85.681 50.5307C85.9512 50.0187 86.1077 49.5778 86.1503 49.208C86.2072 48.824 86.2357 48.2907 86.2357 47.608C86.2357 45.5316 85.6312 44.4933 84.4223 44.4933ZM115.231 63.5013C116.312 63.5013 117.137 62.8329 117.706 61.496C118.289 60.1591 118.58 57.9547 118.58 54.8827V52.728C118.58 50.4809 118.31 48.7458 117.77 47.5227C117.229 46.2996 116.461 45.688 115.466 45.688H113.866V63.5013H115.231ZM115.892 67.1493C115.38 67.1493 114.584 67.1209 113.503 67.064C112.436 67.0213 111.334 67 110.196 67H106.804V41.9973H110.196C111.149 41.9831 112.187 41.9476 113.311 41.8907C114.435 41.8338 115.316 41.8053 115.956 41.8053C119.583 41.8053 122.179 42.8222 123.743 44.856C125.322 46.8898 126.111 49.8551 126.111 53.752C126.111 55.0747 126.019 56.3333 125.834 57.528C125.663 58.7227 125.336 59.9244 124.852 61.1333C124.369 62.328 123.757 63.3591 123.018 64.2267C122.278 65.0942 121.297 65.7982 120.074 66.3387C118.851 66.8791 117.457 67.1493 115.892 67.1493Z" fill="#C8A800"/>
<path d="M35.312 116.672C33.6693 116.672 32.1333 116.523 30.704 116.224C29.296 115.947 28.112 115.573 27.152 115.104C26.192 114.635 25.4027 114.187 24.784 113.76C24.1867 113.333 23.6853 112.907 23.28 112.48L24.08 104.704C24.9547 105.877 26.128 106.901 27.6 107.776C29.072 108.629 30.6613 109.056 32.368 109.056C34.0747 109.056 35.3013 108.875 36.048 108.512C36.816 108.149 37.2 107.488 37.2 106.528C37.2 105.504 36.7627 104.629 35.888 103.904C35.0347 103.179 33.552 102.304 31.44 101.28C30.672 100.896 30.0213 100.555 29.488 100.256C28.9547 99.936 28.24 99.424 27.344 98.72C26.4693 97.9947 25.7547 97.248 25.2 96.48C24.6453 95.6907 24.1547 94.688 23.728 93.472C23.3013 92.2347 23.088 90.912 23.088 89.504C23.088 81.888 27.3867 78.08 35.984 78.08C37.3493 78.08 38.6293 78.2293 39.824 78.528C41.04 78.8053 41.9893 79.1147 42.672 79.456C43.3547 79.7973 43.9733 80.2027 44.528 80.672C45.104 81.12 45.4667 81.44 45.616 81.632C45.7653 81.8027 45.872 81.9413 45.936 82.048L44.336 88.224C43.504 87.2427 42.4587 86.5173 41.2 86.048C39.9627 85.5573 38.7787 85.312 37.648 85.312C34.9173 85.312 33.552 86.1653 33.552 87.872C33.552 88.32 33.6373 88.7253 33.808 89.088C33.9787 89.4507 34.256 89.7813 34.64 90.08C35.024 90.3787 35.376 90.6347 35.696 90.848C36.0373 91.0613 36.496 91.328 37.072 91.648C37.6693 91.9467 38.1173 92.192 38.416 92.384C41.5307 93.7067 43.8133 95.2747 45.264 97.088C46.736 98.9013 47.472 101.109 47.472 103.712C47.472 107.936 46.4267 111.157 44.336 113.376C42.2667 115.573 39.2587 116.672 35.312 116.672ZM56.8147 116V86.976H49.3268V78.496H75.1188V86.976H67.6307V116H56.8147ZM100.644 116H77.9565V78.496H100.165L99.5245 86.048L88.5485 85.728V92.96H97.1885V100.448L88.5485 99.808V108.32L100.644 108V116ZM126.238 116H103.55V78.496H125.758L125.118 86.048L114.142 85.728V92.96H122.782V100.448L114.142 99.808V108.32L126.238 108V116ZM129.144 116V78.496H139.736V107.424H149.272V116H129.144Z" fill="#C8A800"/>
</svg>
